<?xml version="1.0" standalone="no"?>
<!DOCTYPE svg PUBLIC "-//W3C//DTD SVG 20010904//EN"
 "http://www.w3.org/TR/2001/REC-SVG-20010904/DTD/svg10.dtd">
<svg version="1.0" xmlns="http://www.w3.org/2000/svg"
 width="512.000000pt" height="512.000000pt" viewBox="0 0 512.000000 512.000000"
 preserveAspectRatio="xMidYMid meet">
<metadata>
Created by potrace 1.11, written by Peter Selinger 2001-2013
</metadata>
<g transform="translate(0.000000,512.000000) scale(0.100000,-0.100000)"
fill="#000000" stroke="none">
<path d="M1311 5102 c-49 -23 -138 -118 -199 -211 -191 -292 -420 -881 -642
-1656 -44 -151 -120 -434 -135 -497 -7 -31 -101 -149 -194 -245 -8 -8 -34 -40
-57 -70 -35 -45 -41 -59 -33 -74 5 -11 9 -25 7 -32 -3 -14 32 -77 43 -77 4 0
40 36 80 80 40 44 74 79 75 77 2 -2 -12 -68 -32 -148 -87 -353 -133 -630 -139
-839 -5 -168 10 -258 50 -300 39 -40 75 -46 129 -21 85 42 189 181 371 496 23
40 30 43 32 15 4 -45 69 -127 124 -155 106 -56 210 13 322 215 85 154 217 510
273 740 25 103 26 106 65 127 21 12 39 19 39 16 0 -2 -9 -39 -20 -81 -45 -177
-65 -354 -50 -449 21 -141 56 -186 141 -185 72 1 149 57 256 186 l40 48 -28
-148 c-45 -232 -76 -344 -109 -389 -237 -328 -414 -649 -499 -905 -52 -158
-71 -246 -71 -337 0 -168 51 -259 156 -277 171 -30 376 307 528 869 30 113
112 432 121 475 13 58 138 537 153 587 12 36 78 159 165 305 80 134 151 256
158 271 16 36 25 27 27 -29 3 -67 30 -175 51 -203 26 -34 67 -21 132 42 61 60
189 230 277 367 34 52 75 114 91 138 l29 43 5 -28 c3 -15 11 -58 17 -95 22
-123 93 -206 183 -213 112 -9 338 164 507 390 93 125 110 167 95 242 -13 61
-30 51 -198 -117 -198 -197 -263 -234 -298 -168 -15 29 -12 154 7 245 49 242
127 434 198 484 44 33 58 35 113 15 44 -16 60 -11 64 19 3 25 -10 105 -22 127
-16 30 -84 58 -139 58 -70 0 -125 -28 -202 -102 -137 -132 -251 -355 -298
-582 -7 -32 -16 -64 -21 -70 -5 -6 -39 -49 -75 -96 -90 -114 -129 -150 -167
-150 -16 0 -18 6 -12 53 9 80 23 150 61 297 19 75 36 145 38 155 3 11 14 58
26 105 32 133 32 133 19 124 -9 -5 -11 2 -6 28 l5 36 -96 -55 c-53 -31 -114
-64 -134 -75 -20 -11 -41 -25 -46 -31 -14 -17 -94 -296 -136 -470 -19 -82 -39
-154 -44 -160 -6 -7 -73 -120 -151 -251 -78 -132 -141 -233 -141 -225 0 8 9
55 20 104 11 50 22 101 25 115 5 27 47 206 115 485 21 88 50 210 65 270 14 61
28 116 31 124 3 8 -1 11 -11 7 -8 -3 -15 -4 -15 -3 0 1 4 17 9 35 11 36 13 37
-59 -13 -221 -154 -206 -140 -224 -203 l-16 -59 -58 2 c-127 5 -204 -52 -346
-254 -86 -123 -96 -133 -183 -191 -50 -33 -94 -60 -97 -60 -3 0 -6 27 -6 59 0
77 -27 215 -51 262 -86 170 -280 36 -471 -326 -121 -231 -254 -655 -272 -872
-5 -62 -180 -313 -218 -313 -16 0 -5 119 32 339 24 143 100 525 125 621 2 8 8
35 14 60 7 25 13 52 15 60 129 509 144 558 200 648 28 45 65 107 81 136 17 29
35 60 41 67 13 16 201 394 229 459 10 25 34 81 53 125 137 321 233 662 234
830 2 192 -48 272 -141 227z m19 -339 c-11 -48 -35 -133 -52 -188 -17 -55 -32
-102 -32 -105 -3 -17 -84 -230 -148 -391 -59 -149 -189 -417 -182 -374 10 52
83 302 150 515 105 327 213 597 263 654 16 18 16 18 19 -2 2 -11 -6 -60 -18
-109z m679 -1999 c-28 -120 -53 -230 -55 -244 -3 -14 -9 -38 -13 -55 -5 -16
-12 -43 -16 -59 -8 -36 -87 -113 -126 -121 -61 -14 -70 21 -44 180 35 219 104
383 200 478 24 24 99 59 103 48 1 -4 -21 -106 -49 -227z m-665 61 c0 -33 -3
-69 -6 -80 -3 -11 -9 -39 -13 -62 -6 -37 -12 -44 -46 -57 -70 -28 -102 -19
-104 29 -1 29 74 170 109 206 45 46 61 36 60 -36z m-163 -409 c19 3 40 7 47 9
18 6 15 -7 -24 -113 -83 -225 -209 -442 -255 -442 -20 0 -21 3 -15 53 9 67 55
236 113 409 l45 138 28 -29 c22 -25 33 -29 61 -25z m438 -1406 c-28 -113 -52
-212 -54 -220 -2 -8 -20 -66 -39 -129 -75 -236 -143 -325 -201 -261 -14 16
-17 30 -12 72 15 127 137 401 282 635 38 62 70 111 72 110 1 -2 -21 -95 -48
-207z"/>
<path d="M2730 4489 c-63 -39 -100 -95 -124 -186 -12 -45 -13 -164 -3 -208 34
-144 66 -200 137 -244 41 -24 99 -27 139 -6 80 41 141 169 141 294 0 82 -31
209 -65 267 -54 93 -152 129 -225 83z"/>
<path d="M4907 3133 c-4 -3 -7 -17 -7 -30 0 -12 -3 -23 -7 -24 -5 0 -24 -2
-44 -4 -46 -4 -70 -17 -103 -55 -64 -77 -59 -206 11 -276 36 -36 78 -51 163
-58 30 -2 61 -4 68 -5 22 -2 62 -52 62 -78 0 -36 -28 -83 -56 -93 -49 -19
-125 19 -160 80 -13 20 -21 26 -29 20 -9 -7 -1 -39 29 -120 23 -60 44 -110 49
-110 4 0 10 8 13 18 10 33 20 45 40 48 61 9 82 17 110 42 45 39 67 88 70 157
3 59 -14 115 -48 156 -25 30 -75 48 -152 54 -91 7 -121 17 -135 44 -28 52 10
121 66 121 37 0 87 -31 109 -69 13 -22 21 -27 30 -20 9 8 3 32 -27 106 -43
106 -43 106 -52 96z"/>
<path d="M4542 2889 c-72 -45 -85 -57 -84 -79 0 -13 13 -225 18 -300 5 -74 4
-83 -9 -70 -7 8 -54 62 -103 120 -49 58 -96 113 -105 123 -16 18 -20 16 -100
-34 -46 -28 -85 -53 -87 -54 -1 -1 0 -9 4 -18 5 -13 10 -14 30 -5 15 7 28 8
34 2 17 -17 170 -436 170 -465 0 -17 -7 -33 -19 -40 -10 -7 -16 -20 -14 -30 4
-15 15 -11 79 28 68 41 84 59 68 76 -4 3 -15 2 -26 -4 -29 -16 -43 2 -84 109
-20 54 -52 136 -70 184 -19 48 -34 90 -34 93 0 7 197 -219 271 -312 38 -47 54
-50 53 -7 -1 37 -15 286 -19 339 -4 50 -7 147 -5 160 1 10 123 -310 141 -368
7 -24 4 -33 -16 -53 -13 -13 -22 -30 -19 -38 4 -10 32 3 105 49 55 35 105 65
111 67 7 3 9 12 5 21 -5 13 -11 15 -31 7 -17 -6 -27 -5 -34 3 -15 20 -172 445
-172 468 0 11 10 29 23 39 15 13 19 22 12 29 -8 7 -36 -5 -93 -40z"/>
<path d="M3700 2563 c-36 -20 -92 -50 -125 -68 -33 -18 -76 -41 -95 -52 -19
-11 -71 -39 -115 -63 -44 -23 -102 -55 -130 -70 -27 -15 -81 -44 -120 -65 -38
-21 -74 -41 -80 -45 -5 -4 -50 -29 -100 -55 -49 -27 -105 -57 -123 -67 -18
-10 -92 -50 -165 -90 -72 -39 -178 -98 -235 -130 -57 -32 -105 -58 -108 -58
-4 0 -216 -119 -221 -124 -1 -1 -11 -41 -22 -90 -15 -68 -16 -86 -6 -82 10 4
12 -4 8 -31 l-6 -35 104 64 c57 36 165 103 239 149 74 46 143 89 152 94 10 6
172 107 360 225 189 118 351 220 361 225 117 66 516 323 517 333 0 16 -21 15
-45 -1 -11 -8 -60 -35 -110 -62 -49 -26 -106 -57 -125 -68 -87 -50 8 18 120
86 166 102 156 95 145 106 -7 6 -32 -2 -75 -26z"/>
<path d="M3952 2520 c-35 -22 -66 -40 -71 -40 -4 0 -16 -9 -26 -20 -10 -11
-22 -20 -26 -20 -4 0 -42 -21 -84 -47 -48 -31 -74 -53 -72 -63 2 -8 10 -13 18
-11 8 2 21 6 30 8 13 4 24 -14 49 -79 17 -45 43 -112 57 -148 14 -36 41 -107
59 -158 l34 -93 -25 -25 c-16 -16 -22 -30 -18 -38 6 -10 51 14 173 91 91 57
171 107 178 112 11 6 9 27 -13 109 -31 115 -52 129 -49 32 2 -42 -4 -70 -18
-100 -21 -42 -79 -90 -109 -90 -19 0 -93 190 -79 204 18 18 60 -4 82 -44 13
-22 26 -40 30 -40 21 0 14 35 -38 169 -42 110 -61 148 -71 144 -8 -3 -12 -12
-8 -22 14 -35 15 -107 3 -130 -17 -31 -30 -28 -45 12 -6 18 -23 62 -37 99
l-26 68 51 26 c63 31 95 26 128 -21 23 -34 52 -47 50 -22 0 6 -15 49 -32 94
l-32 82 -63 -39z"/>
<path d="M3475 2223 c-94 -58 -176 -111 -184 -118 -12 -11 -9 -26 15 -94 16
-45 33 -80 39 -78 6 2 9 29 7 64 -3 52 -1 63 23 91 15 18 32 32 39 32 8 0 50
-98 100 -231 83 -220 86 -232 71 -255 -8 -13 -19 -24 -24 -24 -5 0 -7 -9 -4
-19 5 -18 13 -15 87 31 135 85 145 93 137 107 -7 10 -13 10 -29 2 -16 -9 -24
-8 -36 5 -9 8 -16 17 -16 19 0 1 -37 102 -83 223 l-84 220 29 17 c25 14 34 15
59 5 16 -7 29 -15 29 -19 1 -3 10 -17 21 -30 37 -45 41 -10 8 74 -17 44 -31
81 -32 82 -2 1 -79 -46 -172 -104z"/>
<path d="M3197 2063 c-4 -3 -7 -17 -7 -30 0 -20 -5 -23 -37 -23 -41 0 -95 -28
-124 -63 -25 -30 -43 -111 -35 -158 16 -100 73 -154 173 -164 113 -11 132 -16
153 -42 24 -30 25 -63 5 -102 -39 -76 -138 -51 -208 52 -10 15 -18 19 -25 12
-11 -11 68 -230 83 -230 5 0 11 9 13 20 6 31 22 45 50 45 44 0 106 37 134 81
62 96 40 245 -45 298 -31 19 -74 27 -214 40 -24 2 -53 41 -53 70 0 15 9 40 21
55 16 20 29 26 61 26 36 0 47 -6 86 -46 24 -25 47 -42 52 -38 5 5 -8 50 -29
101 -39 98 -44 107 -54 96z"/>
<path d="M2860 1839 c-36 -21 -65 -43 -64 -49 3 -29 4 -30 25 -20 11 7 24 9
27 5 7 -7 4 -276 -3 -283 -2 -2 -44 34 -92 81 -78 76 -87 88 -75 104 19 28 25
43 19 50 -10 10 -202 -114 -206 -132 -2 -14 2 -17 18 -12 25 6 45 -9 176 -135
92 -88 102 -102 128 -170 15 -41 27 -84 27 -95 0 -12 -12 -30 -27 -41 -20 -15
-25 -24 -18 -31 8 -8 45 10 125 60 63 39 116 73 118 74 1 1 0 9 -4 18 -5 15
-8 15 -31 0 -33 -22 -43 -10 -83 92 l-32 80 7 170 c6 174 11 211 27 232 5 7 8
19 6 27 -2 11 -18 5 -68 -25z"/>
<path d="M2427 1583 c-4 -3 -7 -16 -7 -28 0 -19 -7 -23 -52 -28 -144 -17 -200
-224 -91 -333 36 -36 80 -51 158 -55 65 -3 102 -16 120 -42 31 -45 7 -117 -46
-136 -44 -15 -108 14 -147 67 -17 24 -33 37 -40 33 -15 -9 69 -229 86 -223 6
2 12 15 12 28 0 13 1 24 3 24 1 1 20 3 42 6 82 12 133 56 161 138 34 101 -10
225 -91 256 -16 6 -54 13 -84 16 -141 13 -161 23 -161 85 0 46 36 79 87 79 27
0 43 -9 78 -46 25 -25 49 -43 54 -40 5 4 -8 48 -30 103 -43 106 -43 106 -52
96z"/>
<path d="M1494 1361 c-8 -7 -191 -108 -414 -229 -36 -19 -69 -38 -75 -42 -5
-4 -50 -29 -100 -55 -49 -27 -103 -56 -120 -65 -16 -9 -86 -48 -155 -85 -69
-37 -143 -78 -165 -90 -22 -12 -71 -39 -110 -60 -171 -93 -232 -128 -263 -151
-43 -34 -85 -101 -87 -142 -4 -52 15 -125 38 -149 40 -44 122 -39 196 11 20
13 212 133 426 266 215 133 458 285 541 337 l152 94 67 127 c38 70 75 137 83
150 15 22 14 23 -12 16 l-27 -6 21 37 c21 37 23 53 4 36z"/>
</g>
</svg>
